<svg aria-hidden="true" style="position: absolute; width: 0; height: 0; overflow: hidden;" version="1.1" xmlns="http://www.w3.org/2000/svg" xmlns:xlink="http://www.w3.org/1999/xlink">
<defs>
<symbol id="icon-add-to-list" viewBox="0 0 20 20">
<title>add-to-list</title>
<path d="M19.4 9h-3.4v-3.4c0-0.6-0.4-0.6-1-0.6s-1 0-1 0.6v3.4h-3.4c-0.6 0-0.6 0.4-0.6 1s0 1 0.6 1h3.4v3.4c0 0.6 0.4 0.6 1 0.6s1 0 1-0.6v-3.4h3.4c0.6 0 0.6-0.4 0.6-1s0-1-0.6-1zM7.4 9h-6.8c-0.6 0-0.6 0.4-0.6 1s0 1 0.6 1h6.8c0.6 0 0.6-0.4 0.6-1s0-1-0.6-1zM7.4 14h-6.8c-0.6 0-0.6 0.4-0.6 1s0 1 0.6 1h6.8c0.6 0 0.6-0.4 0.6-1s0-1-0.6-1zM7.4 4h-6.8c-0.6 0-0.6 0.4-0.6 1s0 1 0.6 1h6.8c0.6 0 0.6-0.4 0.6-1s0-1-0.6-1z"></path>
</symbol>
<symbol id="icon-bookmark" viewBox="0 0 20 20">
<title>bookmark</title>
<path d="M14 2v17l-4-4-4 4v-17c0-0.553 0.585-1.020 1-1h6c0.689-0.020 1 0.447 1 1z"></path>
</symbol>
<symbol id="icon-circle-with-plus" viewBox="0 0 20 20">
<title>circle-with-plus</title>
<path d="M10 1.6c-4.639 0-8.4 3.761-8.4 8.4s3.761 8.4 8.4 8.4 8.4-3.761 8.4-8.4c0-4.639-3.761-8.4-8.4-8.4zM15 11h-4v4h-2v-4h-4v-2h4v-4h2v4h4v2z"></path>
</symbol>
<symbol id="icon-cog" viewBox="0 0 20 20">
<title>cog</title>
<path d="M16.783 10c0-1.049 0.646-1.875 1.617-2.443-0.176-0.584-0.407-1.145-0.692-1.672-1.089 0.285-1.97-0.141-2.711-0.883-0.741-0.74-0.968-1.621-0.683-2.711-0.527-0.285-1.088-0.518-1.672-0.691-0.568 0.97-1.595 1.615-2.642 1.615-1.048 0-2.074-0.645-2.643-1.615-0.585 0.173-1.144 0.406-1.671 0.691 0.285 1.090 0.059 1.971-0.684 2.711-0.74 0.742-1.621 1.168-2.711 0.883-0.285 0.527-0.517 1.088-0.691 1.672 0.97 0.568 1.615 1.394 1.615 2.443 0 1.047-0.645 2.074-1.615 2.643 0.175 0.584 0.406 1.144 0.691 1.672 1.090-0.285 1.971-0.059 2.711 0.682s0.969 1.623 0.684 2.711c0.527 0.285 1.087 0.518 1.672 0.693 0.568-0.973 1.595-1.617 2.643-1.617 1.047 0 2.074 0.645 2.643 1.617 0.584-0.176 1.144-0.408 1.672-0.693-0.285-1.088-0.059-1.969 0.683-2.711 0.741-0.74 1.622-1.166 2.711-0.883 0.285-0.527 0.517-1.086 0.692-1.672-0.973-0.569-1.619-1.395-1.619-2.442zM10 13.652c-2.018 0-3.653-1.635-3.653-3.652 0-2.018 1.636-3.654 3.653-3.654s3.652 1.637 3.652 3.654c0 2.018-1.634 3.652-3.652 3.652z"></path>
</symbol>
<symbol id="icon-export" viewBox="0 0 20 20">
<title>export</title>
<path d="M15 15h-13v-9h2.595c0 0 0.689-0.896 2.17-2h-5.765c-0.553 0-1 0.449-1 1v11c0 0.553 0.447 1 1 1h15c0.553 0 1-0.447 1-1v-3.746l-2 1.645v1.101zM13.361 8.050v3.551l6.639-5.201-6.639-4.999v3.131c-8.061 0-8.061 7.968-8.061 7.968 2.282-3.748 3.686-4.45 8.061-4.45z"></path>
</symbol>
<symbol id="icon-eye" viewBox="0 0 20 20">
<title>eye</title>
<path d="M10 4.4c-6.561 0-10 4.832-10 5.6 0 0.766 3.439 5.6 10 5.6s10-4.834 10-5.6c0-0.768-3.44-5.6-10-5.6zM10 14.307c-2.455 0-4.445-1.928-4.445-4.307s1.99-4.309 4.445-4.309c2.455 0 4.444 1.93 4.444 4.309s-1.989 4.307-4.444 4.307zM10 10c-0.407-0.447 0.663-2.154 0-2.154-1.228 0-2.223 0.965-2.223 2.154s0.995 2.154 2.223 2.154c1.227 0 2.223-0.965 2.223-2.154 0-0.547-1.877 0.379-2.223 0z"></path>
</symbol>
<symbol id="icon-help-with-circle" viewBox="0 0 20 20">
<title>help-with-circle</title>
<path d="M10 0.4c-5.302 0-9.6 4.298-9.6 9.6s4.298 9.6 9.6 9.6c5.301 0 9.6-4.298 9.6-9.601 0-5.301-4.299-9.599-9.6-9.599zM9.849 15.599h-0.051c-0.782-0.023-1.334-0.6-1.311-1.371 0.022-0.758 0.587-1.309 1.343-1.309l0.046 0.002c0.804 0.023 1.35 0.594 1.327 1.387-0.023 0.76-0.578 1.291-1.354 1.291zM13.14 9.068c-0.184 0.26-0.588 0.586-1.098 0.983l-0.562 0.387c-0.308 0.24-0.494 0.467-0.563 0.688-0.056 0.174-0.082 0.221-0.087 0.576v0.090h-2.145l0.006-0.182c0.027-0.744 0.045-1.184 0.354-1.547 0.485-0.568 1.555-1.258 1.6-1.287 0.154-0.115 0.283-0.246 0.379-0.387 0.225-0.311 0.324-0.555 0.324-0.793 0-0.334-0.098-0.643-0.293-0.916-0.188-0.266-0.545-0.398-1.061-0.398-0.512 0-0.863 0.162-1.072 0.496-0.216 0.341-0.325 0.7-0.325 1.067v0.092h-2.211l0.004-0.096c0.057-1.353 0.541-2.328 1.435-2.897 0.563-0.361 1.264-0.544 2.081-0.544 1.068 0 1.972 0.26 2.682 0.772 0.721 0.519 1.086 1.297 1.086 2.311-0.001 0.567-0.18 1.1-0.534 1.585z"></path>
</symbol>
<symbol id="icon-magnifying-glass" viewBox="0 0 20 20">
<title>magnifying-glass</title>
<path d="M17.545 15.467l-3.779-3.779c0.57-0.935 0.898-2.035 0.898-3.21 0-3.417-2.961-6.377-6.378-6.377s-6.186 2.769-6.186 6.186c0 3.416 2.961 6.377 6.377 6.377 1.137 0 2.2-0.309 3.115-0.844l3.799 3.801c0.372 0.371 0.975 0.371 1.346 0l0.943-0.943c0.371-0.371 0.236-0.84-0.135-1.211zM4.004 8.287c0-2.366 1.917-4.283 4.282-4.283s4.474 2.107 4.474 4.474c0 2.365-1.918 4.283-4.283 4.283s-4.473-2.109-4.473-4.474z"></path>
</symbol>
<symbol id="icon-menu" viewBox="0 0 20 20">
<title>menu</title>
<path d="M16.4 9h-12.8c-0.552 0-0.6 0.447-0.6 1s0.048 1 0.6 1h12.8c0.552 0 0.6-0.447 0.6-1s-0.048-1-0.6-1zM16.4 13h-12.8c-0.552 0-0.6 0.447-0.6 1s0.048 1 0.6 1h12.8c0.552 0 0.6-0.447 0.6-1s-0.048-1-0.6-1zM3.6 7h12.8c0.552 0 0.6-0.447 0.6-1s-0.048-1-0.6-1h-12.8c-0.552 0-0.6 0.447-0.6 1s0.048 1 0.6 1z"></path>
</symbol>
<symbol id="icon-plus" viewBox="0 0 20 20">
<title>plus</title>
<path d="M16 10c0 0.553-0.048 1-0.601 1h-4.399v4.399c0 0.552-0.447 0.601-1 0.601s-1-0.049-1-0.601v-4.399h-4.399c-0.552 0-0.601-0.447-0.601-1s0.049-1 0.601-1h4.399v-4.399c0-0.553 0.447-0.601 1-0.601s1 0.048 1 0.601v4.399h4.399c0.553 0 0.601 0.447 0.601 1z"></path>
</symbol>
<symbol id="icon-print" viewBox="0 0 20 20">
<title>print</title>
<path d="M1.501 6h17c0.57 0 0.477-0.608 0.193-0.707-0.285-0.099-3.443-1.293-3.994-1.293h-0.7v-3h-8v3h-0.699c-0.55 0-3.709 1.194-3.993 1.293s-0.377 0.707 0.193 0.707zM19 7h-18c-0.55 0-1 0.45-1 1v5c0 0.551 0.45 1 1 1h2.283l-0.882 5h15.199l-0.883-5h2.283c0.551 0 1-0.449 1-1v-5c0-0.55-0.449-1-1-1zM4.603 17l1.198-7.003h8.399l1.199 7.003h-10.796z"></path>
</symbol>
<symbol id="icon-user" viewBox="0 0 20 20">
<title>user</title>
<path d="M7.725 2.146c-1.016 0.756-1.289 1.953-1.239 2.59 0.064 0.779 0.222 1.793 0.222 1.793s-0.313 0.17-0.313 0.854c0.109 1.717 0.683 0.976 0.801 1.729 0.284 1.814 0.933 1.491 0.933 2.481 0 1.649-0.68 2.42-2.803 3.334-2.13 0.918-4.326 2.073-4.326 4.073v1h18v-1c0-2-2.197-3.155-4.328-4.072-2.123-0.914-2.801-1.684-2.801-3.334 0-0.99 0.647-0.667 0.932-2.481 0.119-0.753 0.692-0.012 0.803-1.729 0-0.684-0.314-0.854-0.314-0.854s0.158-1.014 0.221-1.793c0.065-0.817-0.398-2.561-2.3-3.096-0.333-0.34-0.558-0.881 0.466-1.424-2.24-0.105-2.761 1.067-3.954 1.929z"></path>
</symbol>
</defs>
</svg>
